<svg width="35" height="40" viewBox="0 0 35 40" fill="none" xmlns="http://www.w3.org/2000/svg">
<path d="M25.2778 39.9999C22.588 39.9999 20.2955 39.0245 18.4003 37.0739C16.5051 35.1232 15.5568 32.7652 15.5556 29.9999C15.5543 27.2346 16.5025 24.8766 18.4003 22.9259C20.298 20.9753 22.5905 19.9999 25.2778 19.9999C27.965 19.9999 30.2581 20.9753 32.1572 22.9259C34.0563 24.8766 35.0039 27.2346 35 29.9999C34.9961 32.7652 34.0479 35.1239 32.1553 37.0759C30.2627 39.0279 27.9702 40.0025 25.2778 39.9999ZM15.5556 39.9999C11.0509 38.8332 7.33185 36.1745 4.39833 32.0239C1.46482 27.8732 -0.00129544 23.2653 8.58853e-07 18.1999V5.99998L15.5556 0L31.1111 5.99998V17.3499C30.2685 16.9166 29.3203 16.5833 28.2664 16.3499C27.2125 16.1166 26.2163 15.9999 25.2778 15.9999C21.5185 15.9999 18.3102 17.3666 15.6528 20.0999C12.9954 22.8333 11.6667 26.1332 11.6667 29.9999C11.6667 32.0666 12.0478 33.9332 12.81 35.5999C13.5722 37.2665 14.536 38.7165 15.7014 39.9499C15.669 39.9499 15.645 39.9585 15.6294 39.9759C15.6139 39.9932 15.5893 40.0012 15.5556 39.9999ZM25.2778 29.9999C26.088 29.9999 26.7769 29.7086 27.3447 29.1259C27.9125 28.5432 28.1957 27.8346 28.1944 26.9999C28.1931 26.1652 27.9099 25.4572 27.3447 24.8759C26.7795 24.2946 26.0905 24.0026 25.2778 23.9999C24.465 23.9972 23.7767 24.2892 23.2128 24.8759C22.6489 25.4626 22.365 26.1706 22.3611 26.9999C22.3572 27.8292 22.6411 28.5379 23.2128 29.1259C23.7844 29.7139 24.4728 30.0052 25.2778 29.9999ZM25.2778 35.9999C26.2824 35.9999 27.206 35.7579 28.0486 35.2739C28.8912 34.7899 29.5718 34.1485 30.0903 33.3499C29.3773 32.9165 28.6157 32.5832 27.8055 32.3499C26.9954 32.1166 26.1528 31.9999 25.2778 31.9999C24.4028 31.9999 23.5602 32.1166 22.75 32.3499C21.9398 32.5832 21.1782 32.9165 20.4653 33.3499C20.9838 34.1499 21.6643 34.7919 22.5069 35.2759C23.3495 35.7599 24.2731 36.0012 25.2778 35.9999Z" fill="white"/>
</svg>
