<svg width="114" height="113" viewBox="0 0 114 113" fill="none" xmlns="http://www.w3.org/2000/svg">
<path d="M103.256 100.444H113.529V113H0.528809V100.444H10.8015V6.27778C10.8015 4.61281 11.3427 3.01603 12.3059 1.83872C13.2692 0.661407 14.5757 0 15.9379 0H67.3015C68.6638 0 69.9702 0.661407 70.9335 1.83872C71.8967 3.01603 72.4379 4.61281 72.4379 6.27778V100.444H82.7106V37.6667H98.1197C99.482 37.6667 100.788 38.3281 101.752 39.5054C102.715 40.6827 103.256 42.2795 103.256 43.9444V100.444ZM31.347 50.2222V62.7778H51.8924V50.2222H31.347ZM31.347 25.1111V37.6667H51.8924V25.1111H31.347Z" fill="white"/>
</svg>
