<svg width="22" height="14" viewBox="0 0 22 14" fill="none" xmlns="http://www.w3.org/2000/svg">
<path d="M10.9967 1.45384C11.8061 2.08959 12.4605 2.90104 12.9102 3.82684C13.3599 4.75265 13.5933 5.76858 13.5927 6.79784C13.5929 7.82685 13.3592 8.84244 12.9093 9.76788C12.4594 10.6933 11.805 11.5044 10.9957 12.1398C10.1864 11.5042 9.53213 10.6929 9.0824 9.76729C8.63266 8.84167 8.39921 7.82593 8.39968 6.79684C8.39906 5.76758 8.63244 4.75165 9.08218 3.82584C9.53191 2.90004 10.1862 2.08859 10.9957 1.45284M10.1257 0.870843C9.26872 1.60258 8.58094 2.51175 8.10992 3.53546C7.6389 4.55916 7.39588 5.67297 7.39769 6.79984C7.39632 7.92621 7.63954 9.03943 8.11055 10.0626C8.58155 11.0857 9.2691 11.9944 10.1257 12.7258C9.09107 13.3066 7.92246 13.6065 6.73602 13.5957C5.54958 13.5849 4.38664 13.2637 3.36279 12.6642C2.33893 12.0646 1.48983 11.2075 0.899886 10.1781C0.309942 9.14867 -0.000300057 7.98277 2.17764e-07 6.79628C0.000300493 5.60979 0.311132 4.44405 0.901598 3.41492C1.49206 2.38579 2.3416 1.52913 3.36575 0.930079C4.38991 0.331033 5.55302 0.0104687 6.73946 0.000252091C7.92591 -0.00996452 9.09436 0.290522 10.1287 0.871843M11.8707 12.7258C12.7271 11.9943 13.4144 11.0856 13.8853 10.0625C14.3561 9.03931 14.5992 7.92613 14.5977 6.79984C14.5991 5.67299 14.3557 4.55927 13.8843 3.53574C13.413 2.51221 12.7249 1.60328 11.8677 0.871843C12.902 0.290522 14.0705 -0.00996452 15.2569 0.000252091C16.4433 0.0104687 17.6065 0.331033 18.6306 0.930079C19.6548 1.52913 20.5043 2.38579 21.0948 3.41492C21.6852 4.44405 21.9961 5.60979 21.9964 6.79628C21.9967 7.98277 21.6864 9.14867 21.0965 10.1781C20.5065 11.2075 19.6574 12.0646 18.6336 12.6642C17.6097 13.2637 16.4468 13.5849 15.2603 13.5957C14.0739 13.6065 12.9053 13.3066 11.8707 12.7258Z" fill="#676767"/>
</svg>
