<svg width="114" height="113" viewBox="0 0 114 113" fill="none" xmlns="http://www.w3.org/2000/svg">
<path d="M53.2227 34.5278C47.9996 35.8824 44.8523 39.6869 44.8523 43.2744C44.8523 46.8619 47.9996 50.6664 53.2227 52.0157V34.5278ZM61.593 60.9897V78.4723C66.8161 77.123 69.9634 73.3185 69.9634 69.731C69.9634 66.1435 66.8161 62.339 61.593 60.9897Z" fill="white"/>
<path fill-rule="evenodd" clip-rule="evenodd" d="M113.908 56.5C113.908 87.7049 88.6129 113 57.408 113C26.203 113 0.907959 87.7049 0.907959 56.5C0.907959 25.2951 26.203 0 57.408 0C88.6129 0 113.908 25.2951 113.908 56.5ZM57.408 18.3625C58.5318 18.3625 59.6096 18.8089 60.4043 19.6036C61.199 20.3983 61.6455 21.4761 61.6455 22.6V24.3911C70.855 26.0408 78.5955 32.9621 78.5955 42.375C78.5955 43.4989 78.149 44.5767 77.3543 45.3714C76.5596 46.166 75.4818 46.6125 74.358 46.6125C73.2341 46.6125 72.1563 46.166 71.3616 45.3714C70.5669 44.5767 70.1205 43.4989 70.1205 42.375C70.1205 38.5443 66.9339 34.482 61.6455 33.0356V52.6411C70.855 54.2909 78.5955 61.2121 78.5955 70.625C78.5955 80.0379 70.855 86.9592 61.6455 88.609V90.4C61.6455 91.5239 61.199 92.6017 60.4043 93.3964C59.6096 94.1911 58.5318 94.6375 57.408 94.6375C56.2841 94.6375 55.2063 94.1911 54.4116 93.3964C53.6169 92.6017 53.1705 91.5239 53.1705 90.4V88.609C43.961 86.9592 36.2205 80.0379 36.2205 70.625C36.2205 69.5011 36.6669 68.4233 37.4616 67.6286C38.2563 66.834 39.3341 66.3875 40.458 66.3875C41.5818 66.3875 42.6596 66.834 43.4543 67.6286C44.249 68.4233 44.6955 69.5011 44.6955 70.625C44.6955 74.4557 47.8821 78.5181 53.1705 79.9588V60.3589C43.961 58.7091 36.2205 51.7879 36.2205 42.375C36.2205 32.9621 43.961 26.0408 53.1705 24.3911V22.6C53.1705 21.4761 53.6169 20.3983 54.4116 19.6036C55.2063 18.8089 56.2841 18.3625 57.408 18.3625Z" fill="white"/>
</svg>
