<svg width="259" height="311" viewBox="0 0 259 311" fill="none" xmlns="http://www.w3.org/2000/svg">
<path d="M101.969 13.5849C110.598 13.5836 118.905 16.8628 125.205 22.7573C131.504 28.6518 135.324 36.7203 135.89 45.3261L135.958 47.5545V110.127L209.947 118.347C222.774 119.772 234.677 125.71 243.527 135.099C252.376 144.489 257.596 156.718 258.253 169.601L258.321 172.359V176.639C258.32 204.88 247.322 232.013 227.656 252.292C207.989 272.571 181.197 284.405 152.953 285.287L149.554 285.342H140.39C120.846 285.341 101.663 280.078 84.8581 270.105C68.0533 260.132 54.2478 245.817 44.8934 228.667L43.1124 225.256L4.47303 148.023C-0.421471 138.24 3.20861 125.155 14.6291 120.467C28.8095 114.665 42.283 113.578 56.1643 120.63C59.1826 122.17 62.1465 124.045 65.056 126.255L67.9791 128.565V47.5545C67.9791 38.5452 71.5601 29.9049 77.9344 23.5344C84.3087 17.1639 92.9541 13.5849 101.969 13.5849ZM101.969 40.7606C100.378 40.7601 98.8368 41.3173 97.6145 42.3353C96.3922 43.3533 95.5659 44.7675 95.2795 46.3316L95.1708 47.5545V163.051C95.1686 165.864 94.2928 168.607 92.6643 170.902C91.0359 173.196 88.735 174.929 86.0792 175.861C83.4234 176.793 80.5436 176.878 77.8373 176.105C75.131 175.332 72.7316 173.738 70.9702 171.544L66.4564 166.013L62.3368 161.203C54.4513 152.276 48.7274 147.344 43.8465 144.857C40.96 143.303 37.6719 142.654 34.411 142.996L32.494 143.267L67.4353 213.109C73.9602 226.146 83.8635 237.197 96.1137 245.109C108.364 253.022 122.513 257.507 137.087 258.098L140.39 258.166H149.554C170.66 258.167 190.945 249.992 206.146 235.359C221.348 220.727 230.283 200.775 231.075 179.696L231.129 176.639V172.359C231.13 166.045 228.93 159.927 224.909 155.057C220.887 150.187 215.294 146.869 209.09 145.672L206.942 145.346L132.954 137.139C126.672 136.442 120.829 133.58 116.43 129.045C112.031 124.509 109.35 118.584 108.848 112.287L108.767 110.127V47.5545C108.767 45.7527 108.05 44.0246 106.776 42.7505C105.501 41.4764 103.772 40.7606 101.969 40.7606ZM27.1916 67.9363C30.7975 67.9363 34.2556 69.3679 36.8053 71.9161C39.3551 74.4643 40.7875 77.9204 40.7875 81.5242C40.7875 85.1279 39.3551 88.584 36.8053 91.1322C34.2556 93.6804 30.7975 95.112 27.1916 95.112H13.5958C9.98999 95.112 6.53183 93.6804 3.98212 91.1322C1.43241 88.584 0 85.1279 0 81.5242C0 77.9204 1.43241 74.4643 3.98212 71.9161C6.53183 69.3679 9.98999 67.9363 13.5958 67.9363H27.1916ZM190.342 54.3485C193.807 54.3523 197.14 55.6784 199.66 58.0559C202.179 60.4333 203.696 63.6827 203.899 67.14C204.102 70.5973 202.976 74.0016 200.752 76.6574C198.528 79.3132 195.373 81.02 191.932 81.429L190.342 81.5242H176.746C173.28 81.5203 169.947 80.1942 167.428 77.8167C164.908 75.4393 163.391 72.1899 163.188 68.7326C162.985 65.2753 164.111 61.871 166.335 59.2152C168.559 56.5594 171.714 54.8526 175.155 54.4436L176.746 54.3485H190.342ZM36.8039 3.97834L50.3997 17.5662C52.8763 20.1289 54.2467 23.5612 54.2157 27.1239C54.1847 30.6866 52.7549 34.0946 50.2341 36.6139C47.7133 39.1332 44.3033 40.5622 40.7385 40.5931C37.1738 40.6241 33.7394 39.2545 31.1752 36.7794L17.5794 23.1915C15.1028 20.6289 13.7324 17.1965 13.7634 13.6338C13.7944 10.0712 15.2242 6.66315 17.745 4.14386C20.2658 1.62456 23.6758 0.195542 27.2406 0.164583C30.8054 0.133624 34.2397 1.5032 36.8039 3.97834ZM186.358 3.97834C188.907 6.52643 190.339 9.98193 190.339 13.5849C190.339 17.188 188.907 20.6434 186.358 23.1915L172.762 36.7794C171.508 38.0772 170.008 39.1123 168.349 39.8244C166.69 40.5366 164.906 40.9114 163.101 40.9271C161.296 40.9428 159.505 40.599 157.835 39.9158C156.164 39.2326 154.646 38.2236 153.369 36.9478C152.093 35.672 151.083 34.1549 150.399 32.485C149.716 30.8151 149.372 29.0259 149.387 27.2217C149.403 25.4175 149.778 23.6345 150.491 21.9767C151.203 20.319 152.239 18.8196 153.538 17.5662L167.133 3.97834C169.683 1.43101 173.141 0 176.746 0C180.351 0 183.808 1.43101 186.358 3.97834Z" fill="black"/>
</svg>
