<svg width="117" height="113" viewBox="0 0 117 113" fill="none" xmlns="http://www.w3.org/2000/svg">
<path d="M6.59388 113C4.76795 113 3.23847 112.096 2.00544 110.288C0.7724 108.48 0.153733 106.245 0.149436 103.583C0.14514 100.921 0.763807 98.6866 2.00544 96.8786C3.24707 95.0706 4.77655 94.1666 6.59388 94.1666H109.705C111.531 94.1666 113.062 95.0706 114.3 96.8786C115.537 98.6866 116.154 100.921 116.149 103.583C116.145 106.245 115.526 108.483 114.293 110.297C113.06 112.112 111.531 113.012 109.705 113H6.59388ZM6.59388 65.9166C4.76795 65.9166 3.23847 65.0126 2.00544 63.2046C0.7724 61.3966 0.153733 59.1617 0.149436 56.4999C0.14514 53.8382 0.763807 51.6033 2.00544 49.7953C3.24707 47.9873 4.77655 47.0833 6.59388 47.0833H109.705C111.531 47.0833 113.062 47.9873 114.3 49.7953C115.537 51.6033 116.154 53.8382 116.149 56.4999C116.145 59.1617 115.526 61.3997 114.293 63.214C113.06 65.0283 111.531 65.9292 109.705 65.9166H6.59388ZM6.59388 18.8333C4.76795 18.8333 3.23847 17.9293 2.00544 16.1213C0.7724 14.3133 0.153733 12.0784 0.149436 9.41666C0.14514 6.75488 0.763807 4.52 2.00544 2.712C3.24707 0.904 4.77655 0 6.59388 0H109.705C111.531 0 113.062 0.904 114.3 2.712C115.537 4.52 116.154 6.75488 116.149 9.41666C116.145 12.0784 115.526 14.3165 114.293 16.1307C113.06 17.945 111.531 18.8459 109.705 18.8333H6.59388Z" fill="white"/>
</svg>
