<svg width="114" height="113" viewBox="0 0 114 113" fill="none" xmlns="http://www.w3.org/2000/svg">
<path fill-rule="evenodd" clip-rule="evenodd" d="M31.676 25.1111C31.676 18.4512 34.3216 12.0641 39.0309 7.35487C43.7401 2.64563 50.1272 0 56.7871 0C63.447 0 69.8341 2.64563 74.5433 7.35487C79.2526 12.0641 81.8982 18.4512 81.8982 25.1111C81.8982 31.771 79.2526 38.1581 74.5433 42.8673C69.8341 47.5766 63.447 50.2222 56.7871 50.2222C50.1272 50.2222 43.7401 47.5766 39.0309 42.8673C34.3216 38.1581 31.676 31.771 31.676 25.1111ZM31.676 62.7778C23.3511 62.7778 15.3673 66.0848 9.4807 71.9714C3.59414 77.8579 0.287109 85.8418 0.287109 94.1667C0.287109 99.1616 2.27133 103.952 5.80327 107.484C9.3352 111.016 14.1255 113 19.1204 113H94.4538C99.4487 113 104.239 111.016 107.771 107.484C111.303 103.952 113.287 99.1616 113.287 94.1667C113.287 85.8418 109.98 77.8579 104.094 71.9714C98.207 66.0848 90.2231 62.7778 81.8982 62.7778H31.676Z" fill="white"/>
</svg>
